<svg width="137" height="40" viewBox="0 0 137 40" fill="none" xmlns="http://www.w3.org/2000/svg">
<path d="M41.08 28.096C40.888 28.096 40.736 28.064 40.624 28C40.528 27.952 40.48 27.88 40.48 27.784C40.48 27.656 40.544 27.568 40.672 27.52C40.816 27.456 40.984 27.4 41.176 27.352C41.56 27.24 41.888 27.024 42.16 26.704C42.432 26.384 42.6 25.968 42.664 25.456C42.792 24.48 42.912 23.416 43.024 22.264C43.152 21.112 43.264 19.952 43.36 18.784C43.472 17.616 43.56 16.52 43.624 15.496C43.624 15.384 43.624 15.256 43.624 15.112C43.624 14.968 43.624 14.824 43.624 14.68C43.608 14.44 43.56 14.248 43.48 14.104C43.416 13.944 43.296 13.8 43.12 13.672C42.896 13.512 42.664 13.392 42.424 13.312C42.184 13.216 41.912 13.136 41.608 13.072C41.432 13.04 41.288 12.984 41.176 12.904C41.08 12.808 41.032 12.696 41.032 12.568C41.032 12.44 41.096 12.352 41.224 12.304C41.352 12.256 41.52 12.232 41.728 12.232C41.936 12.232 42.216 12.24 42.568 12.256C42.92 12.272 43.296 12.296 43.696 12.328C44.112 12.344 44.52 12.36 44.92 12.376C45.32 12.392 45.672 12.4 45.976 12.4C46.104 12.4 46.216 12.44 46.312 12.52C46.408 12.6 46.472 12.696 46.504 12.808C46.6 13.112 46.696 13.408 46.792 13.696C46.888 13.984 46.992 14.288 47.104 14.608L50.704 23.416C50.752 23.496 50.816 23.544 50.896 23.56C50.976 23.56 51.032 23.52 51.064 23.44L54.928 14.848C55.04 14.384 55.128 13.976 55.192 13.624C55.272 13.272 55.344 12.992 55.408 12.784C55.456 12.576 55.56 12.472 55.72 12.472H56.704C57.312 12.44 57.952 12.392 58.624 12.328C59.296 12.264 59.816 12.232 60.184 12.232C60.312 12.232 60.432 12.256 60.544 12.304C60.672 12.336 60.736 12.416 60.736 12.544C60.736 12.672 60.688 12.768 60.592 12.832C60.496 12.896 60.352 12.968 60.16 13.048C60.032 13.08 59.88 13.136 59.704 13.216C59.528 13.28 59.376 13.344 59.248 13.408C58.912 13.552 58.656 13.736 58.48 13.96C58.32 14.184 58.248 14.504 58.264 14.92C58.28 16.056 58.312 17.08 58.36 17.992C58.408 18.888 58.448 19.736 58.48 20.536C58.528 21.32 58.584 22.128 58.648 22.96C58.712 23.776 58.768 24.68 58.816 25.672C58.848 26.12 59.016 26.472 59.32 26.728C59.64 26.984 60.064 27.176 60.592 27.304C60.784 27.352 60.936 27.408 61.048 27.472C61.176 27.536 61.24 27.632 61.24 27.76C61.24 27.872 61.184 27.952 61.072 28C60.976 28.048 60.84 28.072 60.664 28.072C60.296 28.072 59.912 28.064 59.512 28.048C59.112 28.032 58.72 28.016 58.336 28C57.968 27.984 57.616 27.976 57.28 27.976C56.96 27.976 56.632 27.984 56.296 28C55.96 28.016 55.616 28.032 55.264 28.048C54.912 28.08 54.544 28.096 54.16 28.096C54 28.096 53.856 28.064 53.728 28C53.616 27.952 53.56 27.88 53.56 27.784C53.56 27.656 53.616 27.552 53.728 27.472C53.856 27.392 54.016 27.336 54.208 27.304C54.752 27.192 55.128 27.024 55.336 26.8C55.56 26.576 55.656 26.2 55.624 25.672C55.608 24.632 55.584 23.632 55.552 22.672C55.52 21.712 55.488 20.76 55.456 19.816C55.424 18.872 55.384 17.92 55.336 16.96C55.32 16.832 55.28 16.776 55.216 16.792C55.168 16.792 55.112 16.856 55.048 16.984L50.152 28.024C50.088 28.2 49.984 28.272 49.84 28.24C49.696 28.224 49.6 28.152 49.552 28.024C48.816 26.168 48.04 24.336 47.224 22.528C46.424 20.704 45.632 18.856 44.848 16.984C44.8 16.856 44.728 16.808 44.632 16.84C44.552 16.872 44.504 16.96 44.488 17.104C44.408 18 44.336 18.928 44.272 19.888C44.208 20.832 44.168 21.776 44.152 22.72C44.136 23.664 44.128 24.6 44.128 25.528C44.128 25.96 44.264 26.328 44.536 26.632C44.824 26.936 45.256 27.16 45.832 27.304C46.024 27.336 46.184 27.392 46.312 27.472C46.456 27.536 46.528 27.632 46.528 27.76C46.528 27.872 46.464 27.952 46.336 28C46.208 28.048 46.064 28.072 45.904 28.072C45.472 28.072 45.144 28.064 44.92 28.048C44.696 28.032 44.488 28.016 44.296 28C44.104 27.984 43.848 27.976 43.528 27.976C43.192 27.976 42.872 27.984 42.568 28C42.28 28.016 42.008 28.032 41.752 28.048C41.496 28.08 41.272 28.096 41.08 28.096ZM69.9642 28.48C69.8362 28.48 69.7722 28.408 69.7722 28.264C69.7722 28.088 69.7882 27.84 69.8202 27.52C69.8682 27.2 69.8922 26.944 69.8922 26.752C69.8922 26.704 69.8842 26.664 69.8682 26.632C69.8682 26.584 69.8682 26.552 69.8682 26.536C69.3722 27.08 68.7882 27.52 68.1162 27.856C67.4602 28.192 66.7642 28.36 66.0282 28.36C65.5162 28.36 65.0522 28.224 64.6362 27.952C64.2362 27.68 63.9162 27.304 63.6762 26.824C63.4522 26.344 63.3402 25.784 63.3402 25.144V20.536C63.3402 20.168 63.2682 19.88 63.1242 19.672C62.9802 19.448 62.7242 19.28 62.3562 19.168C62.2602 19.152 62.1722 19.112 62.0922 19.048C62.0282 18.984 61.9962 18.888 61.9962 18.76C61.9962 18.632 62.0282 18.536 62.0922 18.472C62.1722 18.408 62.2602 18.368 62.3562 18.352C62.9962 18.32 63.5482 18.264 64.0122 18.184C64.4762 18.088 64.9722 17.976 65.5002 17.848C65.5642 17.816 65.6282 17.792 65.6922 17.776C65.7562 17.76 65.8202 17.752 65.8842 17.752C66.0922 17.752 66.1882 17.864 66.1722 18.088C66.1242 18.456 66.0842 18.768 66.0522 19.024C66.0202 19.264 66.0042 19.568 66.0042 19.936V24.568C66.0042 24.952 66.0762 25.296 66.2202 25.6C66.3642 25.904 66.5642 26.144 66.8202 26.32C67.0762 26.496 67.3562 26.592 67.6602 26.608C67.9642 26.608 68.2442 26.576 68.5002 26.512C68.7722 26.448 69.0362 26.304 69.2922 26.08C69.4202 25.984 69.5642 25.808 69.7242 25.552C69.8842 25.28 69.9642 24.928 69.9642 24.496V20.464C69.9642 20.16 69.8922 19.92 69.7482 19.744C69.6202 19.552 69.4442 19.408 69.2202 19.312C69.0122 19.216 68.7962 19.168 68.5722 19.168C68.3962 19.152 68.2602 19.112 68.1642 19.048C68.0682 18.984 68.0202 18.856 68.0202 18.664C68.0202 18.504 68.0762 18.392 68.1882 18.328C68.3002 18.264 68.4282 18.232 68.5722 18.232C69.2762 18.184 69.8442 18.144 70.2762 18.112C70.7082 18.08 71.0682 18.04 71.3562 17.992C71.6602 17.944 71.9562 17.88 72.2442 17.8C72.2922 17.784 72.3402 17.776 72.3882 17.776C72.4522 17.76 72.5002 17.752 72.5322 17.752C72.7562 17.752 72.8682 17.84 72.8682 18.016C72.8682 18.064 72.8602 18.12 72.8442 18.184C72.8442 18.232 72.8282 18.288 72.7962 18.352C72.7802 18.4 72.7562 18.536 72.7242 18.76C72.7082 18.984 72.6842 19.216 72.6522 19.456C72.6362 19.696 72.6282 19.88 72.6282 20.008V25.576C72.6282 25.96 72.6682 26.224 72.7482 26.368C72.8442 26.512 72.9482 26.584 73.0602 26.584C73.1562 26.584 73.2922 26.584 73.4682 26.584C73.6602 26.568 73.7962 26.56 73.8762 26.56C74.0042 26.56 74.1082 26.592 74.1882 26.656C74.2682 26.72 74.3082 26.824 74.3082 26.968C74.3082 27.112 74.2762 27.224 74.2122 27.304C74.1642 27.368 74.0682 27.408 73.9242 27.424C73.2042 27.488 72.5642 27.616 72.0042 27.808C71.4442 27.984 70.9562 28.16 70.5402 28.336C70.4442 28.368 70.3402 28.4 70.2282 28.432C70.1322 28.464 70.0442 28.48 69.9642 28.48ZM78.3154 28.336C77.8034 28.336 77.3074 28.264 76.8274 28.12C76.3634 27.992 75.9394 27.792 75.5554 27.52C75.4434 27.296 75.3554 26.944 75.2914 26.464C75.2434 25.984 75.2194 25.512 75.2194 25.048C75.2194 24.856 75.3554 24.76 75.6274 24.76C75.7394 24.76 75.8354 24.792 75.9154 24.856C75.9954 24.92 76.0514 24.992 76.0834 25.072C76.3554 25.776 76.6994 26.344 77.1154 26.776C77.5314 27.192 78.0034 27.4 78.5314 27.4C78.9794 27.4 79.3314 27.264 79.5874 26.992C79.8434 26.704 79.9714 26.376 79.9714 26.008C79.9714 25.576 79.8114 25.216 79.4914 24.928C79.1874 24.64 78.7634 24.344 78.2194 24.04C77.7234 23.768 77.2754 23.48 76.8754 23.176C76.4914 22.872 76.1874 22.528 75.9634 22.144C75.7394 21.744 75.6274 21.28 75.6274 20.752C75.6274 20.16 75.7794 19.64 76.0834 19.192C76.3874 18.744 76.8114 18.392 77.3554 18.136C77.9154 17.88 78.5554 17.752 79.2754 17.752C79.7874 17.752 80.2434 17.808 80.6434 17.92C81.0594 18.032 81.3474 18.144 81.5074 18.256C81.6354 18.416 81.7394 18.712 81.8194 19.144C81.8994 19.56 81.9394 20 81.9394 20.464C81.9394 20.608 81.8194 20.68 81.5794 20.68C81.4674 20.68 81.3554 20.648 81.2434 20.584C81.1314 20.52 81.0594 20.456 81.0274 20.392C80.8194 19.8 80.5554 19.352 80.2354 19.048C79.9154 18.744 79.5474 18.592 79.1314 18.592C78.7634 18.592 78.4274 18.712 78.1234 18.952C77.8354 19.176 77.6914 19.496 77.6914 19.912C77.6914 20.248 77.8274 20.552 78.0994 20.824C78.3874 21.096 78.7954 21.376 79.3234 21.664C80.3314 22.208 81.0594 22.728 81.5074 23.224C81.9554 23.704 82.1794 24.352 82.1794 25.168C82.1794 26.144 81.8434 26.92 81.1714 27.496C80.4994 28.056 79.5474 28.336 78.3154 28.336ZM83.8272 28.072C83.6992 28.072 83.5952 28.048 83.5152 28C83.4352 27.936 83.3952 27.856 83.3952 27.76C83.3952 27.632 83.4432 27.536 83.5392 27.472C83.6352 27.408 83.7472 27.36 83.8752 27.328C84.2592 27.232 84.5312 27.128 84.6912 27.016C84.8672 26.904 84.9552 26.712 84.9552 26.44V21.232C84.9552 20.72 84.8752 20.336 84.7152 20.08C84.5552 19.824 84.2832 19.664 83.8992 19.6C83.8192 19.584 83.7552 19.544 83.7072 19.48C83.6592 19.4 83.6352 19.312 83.6352 19.216C83.6352 18.992 83.7232 18.872 83.8992 18.856C84.6672 18.696 85.3312 18.48 85.8912 18.208C86.4672 17.92 86.9072 17.696 87.2112 17.536C87.4352 17.424 87.5792 17.368 87.6432 17.368C87.8192 17.368 87.9072 17.448 87.9072 17.608C87.8912 17.832 87.8592 18.144 87.8112 18.544C87.7632 18.928 87.7152 19.344 87.6672 19.792C87.6352 20.224 87.6192 20.632 87.6192 21.016V26.416C87.6192 26.656 87.7072 26.84 87.8832 26.968C88.0592 27.096 88.3392 27.216 88.7232 27.328C88.8512 27.376 88.9632 27.432 89.0592 27.496C89.1552 27.544 89.2032 27.632 89.2032 27.76C89.2032 27.952 89.0672 28.048 88.7952 28.048C88.4912 28.048 88.1952 28.04 87.9072 28.024C87.6352 28.008 87.3632 27.992 87.0912 27.976C86.8352 27.96 86.5632 27.952 86.2752 27.952C86.0032 27.952 85.7392 27.96 85.4832 27.976C85.2272 27.992 84.9632 28.008 84.6912 28.024C84.4352 28.056 84.1472 28.072 83.8272 28.072ZM86.2272 15.976C85.7632 15.976 85.3712 15.816 85.0512 15.496C84.7312 15.176 84.5712 14.792 84.5712 14.344C84.5712 13.848 84.7312 13.44 85.0512 13.12C85.3712 12.8 85.7632 12.64 86.2272 12.64C86.7072 12.64 87.1072 12.8 87.4272 13.12C87.7472 13.44 87.9072 13.848 87.9072 14.344C87.9072 14.792 87.7472 15.176 87.4272 15.496C87.1072 15.816 86.7072 15.976 86.2272 15.976ZM94.6583 28.336C93.8263 28.336 93.0743 28.12 92.4023 27.688C91.7303 27.256 91.1943 26.664 90.7943 25.912C90.4103 25.144 90.2183 24.288 90.2183 23.344C90.2183 22.304 90.4583 21.368 90.9383 20.536C91.4183 19.688 92.0503 19.016 92.8343 18.52C93.6343 18.024 94.5223 17.776 95.4983 17.776C96.7143 17.776 97.7383 18.16 98.5703 18.928C98.7303 19.072 98.8103 19.216 98.8103 19.36C98.8103 19.472 98.7463 19.616 98.6183 19.792C98.4903 19.968 98.3383 20.12 98.1623 20.248C97.9863 20.376 97.8343 20.44 97.7063 20.44C97.5783 20.44 97.4583 20.4 97.3463 20.32C97.2343 20.24 97.1223 20.152 97.0103 20.056C96.6103 19.736 96.1943 19.464 95.7623 19.24C95.3303 19.016 94.9623 18.904 94.6583 18.904C94.0023 18.904 93.4903 19.192 93.1223 19.768C92.7543 20.344 92.5703 21.208 92.5703 22.36C92.5703 23.144 92.7063 23.824 92.9783 24.4C93.2503 24.976 93.6343 25.424 94.1303 25.744C94.6263 26.064 95.2023 26.224 95.8583 26.224C96.3383 26.224 96.7463 26.152 97.0823 26.008C97.4343 25.848 97.8023 25.6 98.1863 25.264C98.2503 25.216 98.3063 25.176 98.3543 25.144C98.4183 25.096 98.4823 25.072 98.5463 25.072C98.7223 25.072 98.8103 25.2 98.8103 25.456C98.8103 25.52 98.7943 25.616 98.7623 25.744C98.7303 25.856 98.6663 25.984 98.5703 26.128C98.3943 26.448 98.1063 26.784 97.7063 27.136C97.3223 27.488 96.8743 27.776 96.3623 28C95.8503 28.224 95.2823 28.336 94.6583 28.336ZM108.606 28.336C107.47 28.336 106.398 28.144 105.39 27.76C104.382 27.376 103.486 26.84 102.702 26.152C101.934 25.448 101.326 24.616 100.878 23.656C100.446 22.696 100.23 21.64 100.23 20.488C100.23 19.352 100.446 18.28 100.878 17.272C101.326 16.264 101.95 15.376 102.75 14.608C103.55 13.824 104.494 13.208 105.582 12.76C106.686 12.296 107.902 12.064 109.23 12.064C109.534 12.064 109.91 12.096 110.358 12.16C110.806 12.208 111.27 12.272 111.75 12.352C112.23 12.432 112.67 12.52 113.07 12.616C113.486 12.712 113.806 12.808 114.03 12.904C114.142 12.952 114.23 13.016 114.294 13.096C114.358 13.16 114.398 13.256 114.414 13.384C114.494 13.912 114.558 14.416 114.606 14.896C114.654 15.376 114.678 15.792 114.678 16.144C114.678 16.272 114.638 16.384 114.558 16.48C114.494 16.576 114.406 16.624 114.294 16.624C114.118 16.624 113.99 16.568 113.91 16.456C113.83 16.328 113.758 16.192 113.694 16.048C113.566 15.76 113.422 15.48 113.262 15.208C113.102 14.92 112.902 14.648 112.662 14.392C112.502 14.232 112.278 14.064 111.99 13.888C111.718 13.696 111.366 13.536 110.934 13.408C110.502 13.28 109.974 13.216 109.35 13.216C108.47 13.216 107.678 13.4 106.974 13.768C106.27 14.12 105.678 14.616 105.198 15.256C104.718 15.896 104.35 16.624 104.094 17.44C103.838 18.24 103.71 19.08 103.71 19.96C103.71 21.064 103.838 22.064 104.094 22.96C104.35 23.84 104.71 24.6 105.174 25.24C105.638 25.864 106.19 26.344 106.83 26.68C107.47 27.016 108.19 27.184 108.99 27.184C109.566 27.184 110.014 27.104 110.334 26.944C110.67 26.768 110.91 26.616 111.054 26.488C111.23 26.344 111.374 26.128 111.486 25.84C111.598 25.552 111.662 25.216 111.678 24.832C111.678 24.688 111.678 24.504 111.678 24.28C111.694 24.056 111.702 23.832 111.702 23.608C111.718 23.384 111.726 23.2 111.726 23.056C111.726 22.88 111.694 22.728 111.63 22.6C111.582 22.456 111.478 22.344 111.318 22.264C111.174 22.152 110.99 22.056 110.766 21.976C110.542 21.88 110.31 21.816 110.07 21.784C109.846 21.736 109.662 21.704 109.518 21.688C109.406 21.672 109.286 21.624 109.158 21.544C109.03 21.448 108.966 21.336 108.966 21.208C108.966 21.08 109.022 20.984 109.134 20.92C109.262 20.856 109.374 20.824 109.47 20.824C109.838 20.824 110.214 20.832 110.598 20.848C110.998 20.864 111.39 20.88 111.774 20.896C112.174 20.912 112.558 20.92 112.926 20.92C113.374 20.92 113.814 20.904 114.246 20.872C114.694 20.84 115.15 20.824 115.614 20.824C115.71 20.824 115.806 20.856 115.902 20.92C116.014 20.968 116.07 21.064 116.07 21.208C116.07 21.336 116.014 21.44 115.902 21.52C115.79 21.6 115.686 21.648 115.59 21.664C115.158 21.776 114.862 21.92 114.702 22.096C114.558 22.272 114.462 22.52 114.414 22.84C114.35 23.192 114.302 23.504 114.27 23.776C114.254 24.048 114.246 24.336 114.246 24.64V25.384C114.246 25.464 114.27 25.536 114.318 25.6C114.382 25.664 114.446 25.736 114.51 25.816C114.574 25.896 114.63 25.976 114.678 26.056C114.742 26.136 114.774 26.216 114.774 26.296C114.774 26.392 114.742 26.496 114.678 26.608C114.63 26.704 114.518 26.768 114.342 26.8C114.23 26.816 114.014 26.904 113.694 27.064C113.374 27.224 112.966 27.408 112.47 27.616C111.99 27.808 111.422 27.976 110.766 28.12C110.126 28.264 109.406 28.336 108.606 28.336ZM117.694 28.072C117.566 28.072 117.462 28.048 117.382 28C117.302 27.936 117.262 27.856 117.262 27.76C117.262 27.632 117.31 27.536 117.406 27.472C117.502 27.408 117.614 27.36 117.742 27.328C118.126 27.232 118.398 27.128 118.558 27.016C118.734 26.904 118.822 26.712 118.822 26.44V21.232C118.822 20.72 118.742 20.336 118.582 20.08C118.422 19.824 118.15 19.664 117.766 19.6C117.686 19.584 117.622 19.544 117.574 19.48C117.526 19.4 117.502 19.312 117.502 19.216C117.502 18.992 117.59 18.872 117.766 18.856C118.534 18.696 119.198 18.48 119.758 18.208C120.334 17.92 120.774 17.696 121.078 17.536C121.302 17.424 121.446 17.368 121.51 17.368C121.686 17.368 121.774 17.448 121.774 17.608C121.758 17.832 121.726 18.144 121.678 18.544C121.63 18.928 121.582 19.344 121.534 19.792C121.502 20.224 121.486 20.632 121.486 21.016V26.416C121.486 26.656 121.574 26.84 121.75 26.968C121.926 27.096 122.206 27.216 122.59 27.328C122.718 27.376 122.83 27.432 122.926 27.496C123.022 27.544 123.07 27.632 123.07 27.76C123.07 27.952 122.934 28.048 122.662 28.048C122.358 28.048 122.062 28.04 121.774 28.024C121.502 28.008 121.23 27.992 120.958 27.976C120.702 27.96 120.43 27.952 120.142 27.952C119.87 27.952 119.606 27.96 119.35 27.976C119.094 27.992 118.83 28.008 118.558 28.024C118.302 28.056 118.014 28.072 117.694 28.072ZM120.094 15.976C119.63 15.976 119.238 15.816 118.918 15.496C118.598 15.176 118.438 14.792 118.438 14.344C118.438 13.848 118.598 13.44 118.918 13.12C119.238 12.8 119.63 12.64 120.094 12.64C120.574 12.64 120.974 12.8 121.294 13.12C121.614 13.44 121.774 13.848 121.774 14.344C121.774 14.792 121.614 15.176 121.294 15.496C120.974 15.816 120.574 15.976 120.094 15.976ZM132.03 28.456C131.982 28.456 131.91 28.408 131.814 28.312C131.734 28.232 131.694 28.168 131.694 28.12C131.726 27.896 131.75 27.664 131.766 27.424C131.798 27.168 131.822 26.952 131.838 26.776V26.632C131.534 27.08 131.102 27.48 130.542 27.832C129.998 28.168 129.374 28.336 128.67 28.336C127.774 28.336 126.982 28.112 126.294 27.664C125.606 27.2 125.062 26.592 124.662 25.84C124.278 25.072 124.086 24.248 124.086 23.368C124.086 22.328 124.318 21.392 124.782 20.56C125.262 19.712 125.926 19.048 126.774 18.568C127.622 18.072 128.606 17.824 129.726 17.824C129.998 17.824 130.27 17.848 130.542 17.896C130.83 17.928 131.078 17.976 131.286 18.04C131.478 18.088 131.582 18.112 131.598 18.112C131.678 18.112 131.718 17.976 131.718 17.704V14.68C131.718 14.072 131.638 13.648 131.478 13.408C131.318 13.168 131.062 13.016 130.71 12.952C130.534 12.904 130.446 12.784 130.446 12.592C130.446 12.416 130.526 12.304 130.686 12.256C131.31 12.112 131.894 11.952 132.438 11.776C132.998 11.584 133.454 11.408 133.806 11.248C133.966 11.184 134.078 11.144 134.142 11.128C134.222 11.096 134.27 11.08 134.286 11.08C134.446 11.08 134.526 11.16 134.526 11.32C134.526 11.32 134.518 11.416 134.502 11.608C134.486 11.8 134.462 12.064 134.43 12.4C134.414 12.72 134.398 13.088 134.382 13.504L134.31 25.192C134.31 25.736 134.35 26.128 134.43 26.368C134.51 26.608 134.646 26.728 134.838 26.728C134.918 26.728 135.022 26.728 135.15 26.728C135.278 26.712 135.502 26.688 135.822 26.656C136.062 26.64 136.182 26.72 136.182 26.896C136.182 27.024 136.134 27.152 136.038 27.28C135.958 27.392 135.878 27.448 135.798 27.448C135.254 27.512 134.702 27.616 134.142 27.76C133.582 27.904 133.014 28.088 132.438 28.312C132.326 28.36 132.238 28.392 132.174 28.408C132.126 28.44 132.078 28.456 132.03 28.456ZM129.773 26.824C130.078 26.824 130.414 26.752 130.782 26.608C131.15 26.448 131.462 26.232 131.718 25.96V20.968C131.718 20.632 131.606 20.304 131.382 19.984C131.158 19.648 130.862 19.376 130.493 19.168C130.126 18.944 129.734 18.832 129.318 18.832C128.934 18.832 128.558 18.976 128.19 19.264C127.822 19.536 127.51 19.96 127.254 20.536C127.014 21.112 126.894 21.848 126.894 22.744C126.894 23.48 126.982 24.112 127.158 24.64C127.35 25.152 127.59 25.568 127.878 25.888C128.166 26.208 128.478 26.448 128.814 26.608C129.15 26.752 129.47 26.824 129.773 26.824Z" fill="#212121"/>
<path d="M9.50358 22.4951C8.59036 22.495 7.68607 22.6812 6.84233 23.043C5.99859 23.4048 5.23192 23.9351 4.58611 24.6038C3.94031 25.2724 3.428 26.0662 3.07844 26.9399C2.72888 27.8135 2.54892 28.75 2.54883 29.6956C2.54871 30.6415 2.72852 31.578 3.07799 32.4519C3.42745 33.3258 3.93973 34.1198 4.58556 34.7886C5.23139 35.4574 5.99812 35.9879 6.84196 36.3498C7.68581 36.7117 8.59023 36.8979 9.50358 36.8978C10.4168 36.8977 11.321 36.7113 12.1647 36.3493C13.0084 35.9873 13.7749 35.4567 14.4206 34.788C15.0662 34.1192 15.5783 33.3253 15.9277 32.4515C16.2771 31.5778 16.4568 30.6413 16.4567 29.6956C16.4565 27.786 15.7239 25.9547 14.42 24.6044C13.1161 23.2541 11.3476 22.4953 9.50358 22.4951ZM9.2627 23.7386C9.81774 23.7385 10.3674 23.8889 10.8802 24.1813C11.393 24.4737 11.859 24.9023 12.2515 25.4426C12.644 25.9829 12.9554 26.6244 13.1678 27.3304C13.3802 28.0364 13.4896 28.7931 13.4896 29.5573C13.4896 30.3215 13.3802 31.0782 13.1678 31.7842C12.9554 32.4902 12.644 33.1317 12.2515 33.672C11.859 34.2123 11.393 34.6409 10.8802 34.9333C10.3674 35.2256 9.81774 35.3761 9.2627 35.376C8.142 35.3756 7.06731 34.7624 6.27495 33.6712C5.4826 32.58 5.03746 31.1003 5.03744 29.5573C5.03746 28.0143 5.4826 26.5345 6.27495 25.4434C7.06731 24.3522 8.142 23.739 9.2627 23.7386Z" fill="#FF761E"/>
<path d="M31.306 17.3391C30.3928 17.339 29.4885 17.5252 28.6448 17.887C27.801 18.2488 27.0344 18.7792 26.3886 19.4478C25.7428 20.1164 25.2305 20.9102 24.8809 21.7839C24.5313 22.6576 24.3514 23.594 24.3513 24.5397C24.3512 25.4855 24.531 26.4221 24.8804 27.2959C25.2299 28.1698 25.7422 28.9638 26.388 29.6326C27.0338 30.3014 27.8006 30.8319 28.6444 31.1938C29.4883 31.5557 30.3927 31.7419 31.306 31.7418C32.2193 31.7417 33.1235 31.5553 33.9672 31.1933C34.8108 30.8313 35.5774 30.3008 36.223 29.632C36.8687 28.9632 37.3808 28.1693 37.7302 27.2955C38.0795 26.4218 38.2593 25.4853 38.2592 24.5397C38.259 22.63 37.5264 20.7987 36.2225 19.4484C34.9185 18.0981 33.1501 17.3394 31.306 17.3391ZM31.0652 18.5826C31.6202 18.5825 32.1698 18.733 32.6827 19.0253C33.1955 19.3177 33.6614 19.7463 34.0539 20.2866C34.4465 20.8269 34.7578 21.4684 34.9703 22.1744C35.1827 22.8804 35.292 23.6371 35.292 24.4013C35.292 25.1655 35.1827 25.9222 34.9703 26.6282C34.7578 27.3342 34.4465 27.9757 34.0539 28.516C33.6614 29.0563 33.1955 29.4849 32.6827 29.7773C32.1698 30.0697 31.6202 30.2201 31.0652 30.22C29.9445 30.2196 28.8698 29.6064 28.0774 28.5152C27.2851 27.4241 26.8399 25.9443 26.8399 24.4013C26.8399 22.8583 27.2851 21.3786 28.0774 20.2874C28.8698 19.1962 29.9445 18.583 31.0652 18.5826Z" fill="#FF761E"/>
<path d="M16.4344 7.92891H13.7828V30.026H16.4344V7.92891Z" fill="#FF761E"/>
<path d="M38.1786 2.97195H35.5269V25.069H38.1786V2.97195Z" fill="#FF761E"/>
<path d="M13.7825 7.36176L35.4983 2.07914H38.1739V5.0339H35.5321L13.8817 10.3006L13.7825 7.36176Z" fill="#FF761E"/>
<path d="M13.802 11.689L35.5055 6.66667H38.1795V9.47583H35.5392L13.901 14.483L13.802 11.689Z" fill="#FF761E"/>
</svg>
