<svg width="25" height="25" viewBox="0 0 25 25" fill="none" xmlns="http://www.w3.org/2000/svg">
<path d="M21.7084 4.80209C21.1763 4.2698 20.5446 3.84755 19.8494 3.55946C19.1541 3.27138 18.4089 3.1231 17.6563 3.1231C16.9037 3.1231 16.1585 3.27138 15.4632 3.55946C14.7679 3.84755 14.1362 4.2698 13.6042 4.80209L12.5 5.90625L11.3959 4.80209C10.3212 3.72741 8.86362 3.12366 7.34379 3.12366C5.82397 3.12366 4.36639 3.72741 3.29171 4.80209C2.21703 5.87676 1.61328 7.33434 1.61328 8.85417C1.61328 10.374 2.21703 11.8316 3.29171 12.9063L12.5 22.1146L21.7084 12.9063C22.2407 12.3742 22.6629 11.7425 22.951 11.0472C23.2391 10.352 23.3874 9.60676 23.3874 8.85417C23.3874 8.10158 23.2391 7.35636 22.951 6.66109C22.6629 5.96582 22.2407 5.33412 21.7084 4.80209Z" stroke="#212121" stroke-linecap="round" stroke-linejoin="round"/>
</svg>
