<svg width="40" height="40" viewBox="0 0 40 40" fill="none" xmlns="http://www.w3.org/2000/svg">
<path d="M9.50358 22.4951C8.59036 22.495 7.68607 22.6812 6.84233 23.043C5.99859 23.4048 5.23192 23.9351 4.58611 24.6038C3.94031 25.2724 3.428 26.0662 3.07844 26.9399C2.72888 27.8135 2.54892 28.75 2.54883 29.6956C2.54871 30.6415 2.72852 31.578 3.07799 32.4519C3.42745 33.3258 3.93973 34.1198 4.58556 34.7886C5.23139 35.4574 5.99812 35.9879 6.84196 36.3498C7.68581 36.7117 8.59023 36.8979 9.50358 36.8978C10.4168 36.8977 11.321 36.7113 12.1647 36.3493C13.0084 35.9873 13.7749 35.4567 14.4206 34.788C15.0662 34.1192 15.5783 33.3253 15.9277 32.4515C16.2771 31.5778 16.4568 30.6413 16.4567 29.6956C16.4565 27.786 15.7239 25.9547 14.42 24.6044C13.1161 23.2541 11.3476 22.4953 9.50358 22.4951ZM9.2627 23.7386C9.81774 23.7385 10.3674 23.8889 10.8802 24.1813C11.393 24.4737 11.859 24.9023 12.2515 25.4426C12.644 25.9829 12.9554 26.6244 13.1678 27.3304C13.3802 28.0364 13.4896 28.7931 13.4896 29.5573C13.4896 30.3215 13.3802 31.0782 13.1678 31.7842C12.9554 32.4902 12.644 33.1317 12.2515 33.672C11.859 34.2123 11.393 34.6409 10.8802 34.9333C10.3674 35.2256 9.81774 35.3761 9.2627 35.376C8.142 35.3756 7.06731 34.7624 6.27495 33.6712C5.4826 32.58 5.03746 31.1003 5.03744 29.5573C5.03746 28.0143 5.4826 26.5345 6.27495 25.4434C7.06731 24.3522 8.142 23.739 9.2627 23.7386Z" fill="#FF761E"/>
<path d="M31.306 17.3391C30.3928 17.339 29.4885 17.5252 28.6448 17.887C27.801 18.2488 27.0344 18.7792 26.3886 19.4478C25.7428 20.1164 25.2305 20.9102 24.8809 21.7839C24.5313 22.6576 24.3514 23.594 24.3513 24.5397C24.3512 25.4855 24.531 26.4221 24.8804 27.2959C25.2299 28.1698 25.7422 28.9638 26.388 29.6326C27.0338 30.3014 27.8006 30.8319 28.6444 31.1938C29.4883 31.5557 30.3927 31.7419 31.306 31.7418C32.2193 31.7417 33.1235 31.5553 33.9672 31.1933C34.8108 30.8313 35.5774 30.3008 36.223 29.632C36.8687 28.9632 37.3808 28.1693 37.7302 27.2955C38.0795 26.4218 38.2593 25.4853 38.2592 24.5397C38.259 22.63 37.5264 20.7987 36.2225 19.4484C34.9185 18.0981 33.1501 17.3394 31.306 17.3391ZM31.0652 18.5826C31.6202 18.5825 32.1698 18.733 32.6827 19.0253C33.1955 19.3177 33.6614 19.7463 34.0539 20.2866C34.4465 20.8269 34.7578 21.4684 34.9703 22.1744C35.1827 22.8804 35.292 23.6371 35.292 24.4013C35.292 25.1655 35.1827 25.9222 34.9703 26.6282C34.7578 27.3342 34.4465 27.9757 34.0539 28.516C33.6614 29.0563 33.1955 29.4849 32.6827 29.7773C32.1698 30.0697 31.6202 30.2201 31.0652 30.22C29.9445 30.2196 28.8698 29.6064 28.0774 28.5152C27.2851 27.4241 26.8399 25.9443 26.8399 24.4013C26.8399 22.8583 27.2851 21.3786 28.0774 20.2874C28.8698 19.1962 29.9445 18.583 31.0652 18.5826Z" fill="#FF761E"/>
<path d="M16.4344 7.92891H13.7828V30.026H16.4344V7.92891Z" fill="#FF761E"/>
<path d="M38.1786 2.97195H35.5269V25.069H38.1786V2.97195Z" fill="#FF761E"/>
<path d="M13.7825 7.36176L35.4983 2.07914H38.1739V5.0339H35.5321L13.8817 10.3006L13.7825 7.36176Z" fill="#FF761E"/>
<path d="M13.802 11.689L35.5055 6.66667H38.1795V9.47583H35.5392L13.901 14.483L13.802 11.689Z" fill="#FF761E"/>
</svg>
